<?xml version="1.0" encoding="utf-8"?>
<!-- Generator: Adobe Illustrator 26.2.1, SVG Export Plug-In . SVG Version: 6.00 Build 0)  -->
<svg version="1.1" id="Layer_1" xmlns="http://www.w3.org/2000/svg" xmlns:xlink="http://www.w3.org/1999/xlink" x="0px" y="0px"
	 viewBox="0 0 769.7 459.5" style="enable-background:new 0 0 769.7 459.5;" xml:space="preserve">
<style type="text/css">
	.st0{fill:#154474;}
	.st1{fill-rule:evenodd;clip-rule:evenodd;fill:#FFFFFF;}
</style>
<rect class="st0" width="769.7" height="459.5"/>
<g>
	<path class="st1" d="M371.4,80.7C246,84.4,169.8,107.9,119,148.7c-50.8,40.9-47.3,96.1-39.3,117.4c6.8,18.3,10.1,22.9,18.6,34.2
		c11.3,15,21.8,21.7,21.8,21.7S39,214.9,181.1,165.5c142.1-49.4,394.2,1.9,394.2,1.9l119.3-52.7C694.7,114.7,496.9,76.9,371.4,80.7z
		"/>
	<path class="st1" d="M156.5,304c-0.4-0.3-1.1-0.4-2.1-0.1c-1,0.2-1.6,0.6-1.9,1c0.2,2.5,0.6,6,1.2,10.6c0.6,4.6,1.2,9,1.9,13.3
		c0.7,4.3,1.5,7.1,2.2,8.5c2.2,1.4,6.3,2.9,12.2,4.3c5.9,1.4,12.2,2.1,19.1,2.2c15.9-0.2,28.1-4.1,36.8-11.7
		c8.7-7.6,13-17.5,13.1-29.7c-0.1-7.7-2.2-14.3-6.2-19.8c-4.1-5.6-9.6-10.6-16.7-15.3c-4.2-2.7-8.2-5.2-12.1-7.6
		c-3.8-2.3-7.9-5.1-12.2-8.4c-4.5-3.3-8-7-10.4-10.9c-2.4-3.9-3.6-8.5-3.6-13.6c0.1-6.3,2-11.6,5.9-15.7c3.9-4.1,9.3-6.2,16.4-6.4
		c3.4,0,6.6,0.3,9.3,1c2.8,0.7,5.4,1.9,8,3.7c3,1.8,5.2,4.6,6.7,8.4c1.5,3.8,2.6,9.2,3.2,16.1c0.3,0.2,1,0.3,1.9,0.2
		c0.9-0.1,1.6-0.3,1.9-0.6c0.5-6.4,1-12.1,1.7-16.9c0.7-4.8,1.4-9.3,2.1-13.4c-4.2-0.3-8.8-1-13.9-1.9c-5.1-0.9-11.4-1.4-18.7-1.5
		c-12.6,0.1-23.1,3.4-31.6,10.1c-8.5,6.6-12.8,16.2-13.2,28.6c0,9.6,2.8,17.8,8.5,24.5c5.6,6.7,13.9,13.4,24.8,20.3
		c9,5.8,15.6,11.1,19.6,16.1s6,10.7,5.9,17.2c-0.1,6.9-2.1,12.3-5.9,16.1c-3.9,3.8-8.9,5.7-15.2,5.8c-4.2,0-8-0.4-11.6-1.3
		c-3.6-0.9-6.8-2.3-9.8-4.3c-4-2.7-7.4-6.2-10.1-10.6S158.6,311.7,156.5,304z"/>
	<path class="st1" d="M385.5,331.9c-1.6-0.7-2.8-1.4-3.3-2c-0.6-0.6-1-1.8-1.2-3.4c-0.3-2.6-0.5-5.9-0.4-9.9s0.1-8.2,0.2-12.6
		c-0.1-6.3,0.3-10.4,1.2-12.3c0.8-1.9,2.4-3.1,4.7-3.5c0.9-0.3,1.8-0.6,2.6-0.9c0.9-0.2,1.9-0.5,3-0.7c0.3-0.3,0.5-1,0.5-1.9
		c0-0.9-0.1-1.6-0.3-1.9c-2.1,0.1-4.9,0.3-8.4,0.4c-3.5,0.1-8.6,0.2-15.2,0.2c-6.2,0-12.2-0.2-18-0.4c-5.8-0.2-10.6-0.3-14.4-0.2
		c-0.3,0.3-0.5,1-0.5,1.9c0,1,0.2,1.7,0.5,2.1c2.1,0.1,4,0.2,5.7,0.4s3.5,0.5,5.3,0.9c3.3,0.4,5.5,1.5,6.7,3.3
		c1.2,1.8,1.9,4.9,2.1,9.5c0.3,4,0.4,8.7,0.3,14.2c-0.1,5.4-0.4,9.9-0.7,13.3c-0.2,2.2-0.7,4-1.6,5.3c-0.8,1.3-2,2.3-3.6,3
		c-1.1,0.5-2.6,0.8-4.8,1.1c-2.1,0.3-4.4,0.4-6.9,0.4c-16.3-0.3-29.1-6.7-38.4-19.3c-9.3-12.6-14.1-29.6-14.3-51.1
		c0.3-22.1,5-38.1,14-48c9-9.9,20.3-14.7,33.9-14.6c6.7,0,12.7,0.6,17.9,2c5.2,1.3,9.7,3.4,13.6,6.4c2.9,1.9,5.1,4.8,6.5,8.8
		c1.5,3.9,2.5,9.6,3.1,16.9c0.5,0.3,1.3,0.5,2.4,0.4c1.2-0.1,1.9-0.4,2.3-0.8c0-5.8,0.5-12.1,1.2-18.7c0.8-6.6,1.6-11.8,2.6-15.5
		c-5.1-0.6-11.3-1.5-18.6-2.8c-7.3-1.3-15.4-2-24.4-2.1c-9.6,0-17.9,0.7-24.7,2.1c-6.8,1.4-13.2,3.4-19.2,6
		c-12.3,5.4-21.8,13.5-28.7,24.4c-6.9,10.9-10.3,23.7-10.5,38.6c0.2,25.1,6.9,43.5,20.3,55.3c13.4,11.8,32.4,17.6,57.1,17.5
		c10.1-0.2,19.9-1.3,29.2-3.3c9.3-2,16.2-3.8,20.5-5.2c0.2-0.2,0.4-0.7,0.5-1.6C385.6,332.8,385.6,332.2,385.5,331.9z"/>
	<path class="st1" d="M481.7,207c2.9,0.3,5.2,0.7,7.1,1.1c1.9,0.4,3.5,0.9,5.1,1.4c1.5,0.5,2.6,1.1,3.2,1.8c0.6,0.7,0.9,1.5,0.8,2.3
		c0,2-0.9,4.3-2.4,7c-1.6,2.7-3.6,5.7-6.1,9.2c-7.7,10.1-15.3,18.9-22.9,26.4c-7.5,7.5-13.9,12.8-19.2,15.6c-0.2,0.1-0.4,0.4-0.5,1
		c-0.1,0.6-0.2,1-0.2,1.2c0.6,0.3,1.1,0.8,1.7,1.3c0.5,0.5,1,1.1,1.5,1.8c3.7,5.3,8,11.2,13,17.8c5,6.6,9.9,13,14.9,19.2
		c5,6.2,9.3,11.3,13,15.2c1.7,1.8,3.6,3.5,5.8,5.3c2.2,1.8,4.6,3.2,7.2,4.1c2.1,0.7,5.6,1.2,10.6,1.6c5,0.4,10.3,0.6,15.9,0.6
		c5.6,0,10.2-0.2,13.9-0.6c0.3-0.3,0.6-1,0.6-1.9c0.1-0.9,0-1.6-0.2-1.9c-2.3-0.1-4.4-0.3-6.3-0.5c-1.9-0.3-3.7-0.8-5.6-1.5
		c-1.6-0.5-3.1-1.3-4.5-2.2c-1.5-0.9-3-2.1-4.7-3.7c-4.8-4.6-10.9-11.1-18.4-19.7s-14.6-17.1-21.5-25.9
		c-6.8-8.7-11.7-15.7-14.6-20.9v-0.7c4.6-4.9,10-11,16.4-18.2c6.4-7.2,12.6-14.3,18.7-21.4c5.2-6.1,9.7-10,13.3-11.6
		c3.7-1.6,8.2-2.8,13.7-3.5c0.2-0.4,0.3-1.1,0.3-2c0-0.9-0.1-1.5-0.3-1.8l-26.5,0.7c-3.7,0-7.2-0.1-10.5-0.3
		c-3.2-0.2-7.4-0.3-12.5-0.4c-0.2,0.3-0.3,1-0.3,1.9C481.4,206.1,481.5,206.7,481.7,207z M445,270c0.1-4,0.1-9.1,0.2-15.2
		c0-6.1,0.1-12.2,0.1-18.3c0-6,0.1-10.9,0.2-14.6c0-3.8,0.4-6.8,1.2-9c0.7-2.2,2.3-3.6,4.7-4.3c1.1-0.3,2.5-0.6,4.1-0.9
		c1.6-0.2,3.2-0.5,4.9-0.7c0.2-0.4,0.3-1.1,0.3-2c0-0.9-0.1-1.5-0.3-1.8c-2.9,0-6.8,0.1-11.6,0.3c-4.8,0.2-9.9,0.3-15.1,0.3
		c-7,0-12.9-0.1-17.8-0.3c-4.9-0.2-8.6-0.3-11.2-0.3c-0.3,0.3-0.5,0.9-0.5,1.8c0,0.9,0.2,1.6,0.5,2c1.5,0.1,3.2,0.3,5,0.6
		c1.8,0.3,3.5,0.7,4.9,1.2c2.3,0.7,3.8,2,4.6,4c0.8,2,1.3,4.6,1.4,7.9c0.1,5,0.1,11.9,0.1,20.6c0,8.7,0,17.5,0.1,26.4
		c0.1,6.4,0.1,13.1,0.1,19.9c0,6.9,0,13.3-0.1,19.2c-0.1,5.9-0.1,10.7-0.2,14.4c-0.2,4.4-0.7,7.7-1.7,10c-1,2.3-2.8,3.7-5.5,4.2
		c-1.4,0.3-2.7,0.6-4.1,0.8c-1.4,0.2-3.3,0.5-5.8,0.8c-0.2,0.3-0.3,0.9-0.3,1.8s0.1,1.5,0.3,1.8c1.9,0,5.9-0.1,11.9-0.4
		c6-0.2,11.9-0.4,17.5-0.5c5.6,0,11,0.1,16.2,0.4c5.2,0.2,9.4,0.4,12.8,0.5c0.4-0.3,0.6-0.9,0.8-1.8c0.2-0.9,0.1-1.6-0.1-2
		c-1.6-0.2-3.3-0.4-5-0.6c-1.7-0.2-3.4-0.5-4.9-1c-2.6-0.5-4.5-1.7-5.5-3.5s-1.6-4.9-1.7-9.1c-0.2-7.6-0.3-15.9-0.4-25.1
		C445.1,288.3,445,279.2,445,270z"/>
	<path class="st1" d="M157.2,378.7l-2.7-5.7l2.3-1.1c1,1.4,2.1,2.5,3.2,3.2c1.1,0.8,2.2,1.1,3.3,1.1c0.8,0,1.4-0.2,1.9-0.6
		c0.5-0.4,0.7-0.9,0.7-1.5c0-0.9-1-1.8-3-2.6l-0.7-0.3c-2.9-1.2-4.8-2.3-5.7-3.2c-1-1-1.4-2.2-1.4-3.6c0-1.6,0.6-2.9,1.8-4
		c1.2-1.1,2.6-1.7,4.3-1.7c0.4,0,0.7,0,1,0.1c0.3,0,0.6,0.1,0.9,0.2c0.6,0.2,1.1,0.4,1.7,0.8l0.1-0.7h1.8l2.4,5.2l-2.3,1.1
		c-0.8-1.3-1.7-2.3-2.6-3c-0.9-0.7-1.8-1-2.8-1c-0.7,0-1.2,0.2-1.6,0.5c-0.4,0.3-0.6,0.7-0.6,1.3c0,1,1.3,2.1,4,3.1l1.3,0.5
		c2.3,0.9,3.8,1.9,4.6,2.8c0.8,0.9,1.2,2,1.2,3.4c0,1.7-0.6,3.1-1.9,4.3c-1.3,1.1-2.9,1.7-4.8,1.7c-0.8,0-1.5-0.1-2.1-0.3
		c-0.6-0.2-1.2-0.5-1.8-0.9l-0.1,0.8H157.2z"/>
	<path class="st1" d="M171.3,369c0-3.1,0.8-5.5,2.3-7.4c1.5-1.8,3.5-2.7,6-2.7c2.5,0,4.5,0.9,6,2.7c1.5,1.8,2.3,4.3,2.3,7.4
		c0,3-0.8,5.4-2.3,7.3c-1.6,1.9-3.5,2.8-6,2.8c-2.4,0-4.4-0.9-5.9-2.8C172.1,374.4,171.3,371.9,171.3,369z M176.5,369
		c0,2.3,0.3,4.2,0.8,5.5c0.5,1.3,1.3,2,2.2,2c0.9,0,1.7-0.7,2.2-2s0.8-3.2,0.8-5.4c0-2.3-0.3-4.2-0.8-5.5c-0.5-1.3-1.3-2-2.2-2
		c-0.9,0-1.6,0.7-2.2,2C176.8,364.9,176.5,366.7,176.5,369z"/>
	<path class="st1" d="M191.6,378.7l-2.7-5.7l2.3-1.1c1,1.4,2.1,2.5,3.2,3.2c1.1,0.8,2.2,1.1,3.3,1.1c0.8,0,1.4-0.2,1.9-0.6
		c0.5-0.4,0.7-0.9,0.7-1.5c0-0.9-1-1.8-3-2.6l-0.7-0.3c-2.9-1.2-4.8-2.3-5.7-3.2c-1-1-1.4-2.2-1.4-3.6c0-1.6,0.6-2.9,1.8-4
		c1.2-1.1,2.6-1.7,4.3-1.7c0.4,0,0.7,0,1,0.1c0.3,0,0.6,0.1,0.9,0.2c0.6,0.2,1.1,0.4,1.7,0.8l0.1-0.7h1.8l2.4,5.2l-2.3,1.1
		c-0.8-1.3-1.7-2.3-2.6-3c-0.9-0.7-1.8-1-2.8-1c-0.7,0-1.2,0.2-1.6,0.5c-0.4,0.3-0.6,0.7-0.6,1.3c0,1,1.3,2.1,4,3.1l1.3,0.5
		c2.3,0.9,3.8,1.9,4.6,2.8c0.8,0.9,1.2,2,1.2,3.4c0,1.7-0.6,3.1-1.9,4.3c-1.3,1.1-2.9,1.7-4.8,1.7c-0.8,0-1.5-0.1-2.1-0.3
		c-0.6-0.2-1.2-0.5-1.8-0.9l-0.1,0.8H191.6z"/>
	<path class="st1" d="M209.4,378.7v-2.4h0.2h0.2c1.1,0,1.8-0.1,2-0.4c0.3-0.2,0.4-0.9,0.4-1.9v-3.7l-4.2-6.8
		c-0.5-0.8-0.9-1.3-1.3-1.5c-0.4-0.2-0.9-0.3-1.6-0.3h-0.3v-2.4h9.8v2.4l-0.4,0H214c-0.5,0-0.8,0-0.9,0.1s-0.3,0.2-0.3,0.4
		c0,0.1,0.1,0.4,0.4,0.9l0.1,0.2l2.1,3.7l2.2-3.8l0.4-0.7c0.1-0.2,0.1-0.3,0.1-0.4c0-0.1-0.1-0.2-0.2-0.3c-0.1,0-0.2-0.1-0.3-0.1
		s-0.3,0-0.5,0h-0.3h-0.3v-2.4h7.5v2.4h-0.3c-0.7,0-1.2,0.1-1.6,0.3s-0.8,0.7-1.3,1.5l-3.9,6.7v3.9c0,1,0.1,1.6,0.4,1.9
		c0.2,0.3,0.8,0.4,1.6,0.4h0.3h0.4v2.4H209.4z"/>
	<path class="st1" d="M229.4,370.3l3.9,0l-1.9-6.7L229.4,370.3z M221.8,378.7v-2.4h0.3c0.8,0,1.4-0.1,1.7-0.4c0.4-0.3,0.8-1,1.1-2.1
		l5-14.5h4.4l4.8,14.7c0.3,1,0.6,1.6,0.9,1.8c0.3,0.3,0.8,0.4,1.4,0.4h0.2h0.2v2.4h-9.6v-2.4l0.7,0c0.5,0,0.9-0.1,1.1-0.3
		c0.3-0.2,0.4-0.4,0.4-0.8c0-0.1,0-0.2,0-0.4c0-0.1-0.1-0.3-0.2-0.6l-0.1-0.2l-0.4-1.4h-5.3l-0.7,2.1l-0.1,0.5l0,0.4
		c0,0.2,0.1,0.4,0.3,0.5c0.2,0.1,0.6,0.2,1,0.2h0.1h0.8v2.4H221.8z"/>
	<path class="st1" d="M242.6,378.7v-2.4h0.1h0.1c1,0,1.6-0.1,1.9-0.4s0.4-0.9,0.4-1.9v-10.1c0-1-0.1-1.6-0.4-1.9
		c-0.2-0.3-0.8-0.4-1.6-0.4h-0.5v-2.4h10v2.4h-0.3c-1.2,0-1.9,0.1-2.1,0.4c-0.3,0.3-0.4,0.9-0.4,1.9v12.3h0.6c1.6,0,2.9-0.4,3.9-1.1
		s1.9-1.9,2.7-3.6l2.6,0.7l-3.1,6.4H242.6z"/>
	<path class="st1" d="M285,377.1c-0.4,0.1-0.8,0.1-1.1,0.2c-0.3,0.1-0.6,0.1-0.7,0.2c0,0-0.2,0.1-0.4,0.1c-0.2,0.1-0.5,0.2-0.9,0.4
		c-1.5,0.7-2.9,1.1-4.2,1.1c-0.5,0-1,0-1.4-0.1c-0.5-0.1-0.9-0.2-1.5-0.5c-1-0.4-1.8-1-2.6-1.7c-1-1-1.8-2.1-2.4-3.4
		c-0.3-0.7-0.5-1.3-0.6-2.1c-0.1-0.7-0.2-1.5-0.2-2.3c0-1.4,0.2-2.7,0.6-3.8c0.4-1.2,1-2.3,1.8-3.2c0.8-0.9,1.7-1.7,2.7-2.3
		c1.1-0.6,2.1-0.8,3.1-0.8c0.6,0,1.2,0.1,1.8,0.3c0.5,0.2,1.1,0.5,1.6,0.9l0.2-0.8h2.1l1.9,5.1l-2.6,1.2c-0.7-1.2-1.5-2.2-2.3-2.9
		s-1.5-1-2.3-1c-1,0-1.8,0.6-2.5,1.9c-0.6,1.3-0.9,3-0.9,5.1c0,2.4,0.4,4.2,1.1,5.6s1.7,2.1,2.9,2.1c0.6,0,1.1-0.2,1.4-0.5
		c0.3-0.4,0.4-0.9,0.4-1.7v-2.3c0-0.6-0.1-1.1-0.4-1.3c-0.3-0.2-0.7-0.4-1.4-0.4l-0.3,0h-0.3v-2.7h9.2v2.7h-0.2
		c-0.7,0-1.2,0.1-1.4,0.3c-0.2,0.2-0.3,0.8-0.3,1.6V377.1z"/>
	<path class="st1" d="M293.1,354.8c0-0.5,0.2-1,0.6-1.4c0.4-0.4,0.9-0.6,1.4-0.6c0.5,0,1,0.2,1.4,0.6c0.4,0.4,0.6,0.8,0.6,1.4
		c0,0.6-0.2,1.1-0.5,1.4c-0.4,0.4-0.8,0.6-1.4,0.6c-0.5,0-1-0.2-1.4-0.6C293.3,355.8,293.1,355.3,293.1,354.8z M298.5,354.8
		c0-0.5,0.2-1,0.6-1.4c0.4-0.4,0.9-0.6,1.4-0.6c0.5,0,1,0.2,1.4,0.6c0.4,0.4,0.6,0.8,0.6,1.4c0,0.6-0.2,1-0.6,1.4
		c-0.4,0.4-0.8,0.6-1.4,0.6c-0.6,0-1-0.2-1.4-0.6C298.7,355.8,298.5,355.3,298.5,354.8z M287.9,361.7v-2.4h9.3v2.4H297
		c-0.8,0-1.4,0.1-1.6,0.4c-0.2,0.2-0.3,0.9-0.3,1.9v8.2c0,1.7,0.2,2.8,0.7,3.4c0.4,0.6,1.2,0.9,2.3,0.9c0.5,0,1-0.1,1.4-0.3
		c0.4-0.2,0.8-0.4,1-0.7c0.2-0.2,0.3-0.5,0.4-0.9c0-0.2,0.1-0.4,0.1-0.7c0-0.3,0-0.6,0-1V372v-8c0-1-0.1-1.6-0.4-1.9
		c-0.2-0.3-0.7-0.4-1.4-0.4h-0.3h-0.3v-2.4h7.8v2.4h-0.2c-1,0-1.6,0.1-1.9,0.4c-0.3,0.2-0.4,0.9-0.4,1.9v7.9c0,1.6-0.1,2.8-0.3,3.5
		c-0.2,0.7-0.6,1.4-1.1,2s-1.2,1-2.1,1.3c-0.9,0.3-1.9,0.5-3.1,0.5c-2.4,0-4.2-0.5-5.3-1.6c-1.1-1-1.7-2.7-1.7-5.1v-8.5
		c0-1-0.1-1.6-0.4-1.9c-0.2-0.3-0.8-0.4-1.6-0.4H287.9z"/>
	<path class="st1" d="M315,378.7l-5.1-14.9c0,0,0-0.1,0-0.1c-0.5-1.3-1.4-2-3-2v-2.4H317v2.4h-0.5c-0.8,0-1.4,0.1-1.6,0.2
		c-0.3,0.1-0.4,0.3-0.4,0.7l0.1,0.3l0.2,0.8l2.8,8.6l2.7-8.3l0.2-0.7l0.1-0.6c0-0.3-0.1-0.5-0.4-0.7c-0.3-0.1-0.7-0.2-1.4-0.2h-0.3
		v-2.4h8.1v2.4h-0.4c-0.8,0-1.4,0.1-1.8,0.4c-0.4,0.3-0.7,0.9-1.1,2l-5,14.6H315z"/>
	<path class="st1" d="M327.2,378.7v-2.4h0.1h0.1c1,0,1.6-0.1,1.9-0.4s0.4-0.9,0.4-1.9v-10.1c0-1-0.1-1.6-0.4-1.9
		c-0.2-0.3-0.8-0.4-1.6-0.4h-0.5v-2.4h14l2.8,5.2l-2.4,1.1c-0.7-1.3-1.6-2.2-2.5-2.8c-1-0.6-2.2-0.9-3.7-0.9h-1v5.7h0.5
		c0.7,0,1.3-0.1,1.5-0.4c0.1-0.1,0.2-0.4,0.3-0.8c0.1-0.4,0.1-0.9,0.1-1.5h2.5v8h-2.5c0-1.2-0.1-2-0.4-2.3c-0.3-0.3-0.8-0.5-1.6-0.5
		h-0.5v6.1h1.1c1.7,0,3.1-0.3,4.2-0.9c1-0.6,2-1.7,2.8-3.2l2.4,0.8l-2.8,5.8H327.2z"/>
	<path class="st1" d="M345.4,378.7v-2.4h0.1h0.1c1.1,0,1.8-0.1,2-0.4c0.3-0.2,0.4-0.9,0.4-1.9v-10.1c0-1-0.1-1.6-0.4-1.9
		c-0.3-0.2-0.8-0.4-1.7-0.4h-0.5v-2.4h8.2l5,11.6v-6.9c0-1-0.1-1.6-0.4-1.9s-0.8-0.4-1.5-0.4h-0.3H356v-2.4h8.1v2.4h-0.2
		c-1.1,0-1.8,0.1-2,0.4c-0.3,0.2-0.4,0.9-0.4,1.9v14.8h-3.9l-6.7-15.4v10.7c0,1,0.1,1.6,0.4,1.8c0.3,0.3,1,0.4,2,0.4h0.8v2.4H345.4z
		"/>
	<path class="st1" d="M364.9,378.7v-2.4h0.1h0.1c1,0,1.6-0.1,1.9-0.4c0.3-0.2,0.4-0.9,0.4-1.9v-10.1c0-1-0.1-1.6-0.4-1.9
		c-0.2-0.3-0.8-0.4-1.6-0.4h-0.5v-2.4h10v2.4h-0.3c-1.2,0-1.9,0.1-2.1,0.4c-0.3,0.3-0.4,0.9-0.4,1.9v12.3h0.6c1.6,0,2.9-0.4,3.9-1.1
		c1-0.7,1.9-1.9,2.7-3.6l2.6,0.7l-3.1,6.4H364.9z"/>
	<path class="st1" d="M385.2,354.8c0-0.5,0.2-1,0.6-1.4c0.4-0.4,0.9-0.6,1.4-0.6c0.6,0,1.1,0.2,1.5,0.6c0.4,0.4,0.6,0.9,0.6,1.5
		c0,0.6-0.2,1.1-0.6,1.5c-0.4,0.4-0.9,0.6-1.5,0.6c-0.6,0-1-0.2-1.4-0.6C385.4,355.8,385.2,355.3,385.2,354.8z M382.5,378.7v-2.4
		h0.1h0.1c1,0,1.6-0.1,1.9-0.4s0.4-0.9,0.4-1.9v-10.1c0-1-0.1-1.6-0.4-1.9c-0.2-0.3-0.8-0.4-1.6-0.4h-0.5v-2.4h9.6v2.4h-0.1
		c-1,0-1.6,0.1-1.9,0.4c-0.3,0.2-0.4,0.9-0.4,1.9V374c0,1,0.1,1.6,0.4,1.9c0.2,0.2,0.8,0.4,1.6,0.4h0.3h0.2v2.4H382.5z"/>
	<path class="st1" d="M393.1,378.7v-2.4h0.1h0.1c1,0,1.6-0.1,1.9-0.4s0.4-0.9,0.4-1.9v-10.1c0-1-0.1-1.6-0.4-1.9
		c-0.2-0.3-0.8-0.4-1.6-0.4h-0.5v-2.4h9.1v2.4H402c-0.8,0-1.3,0.1-1.5,0.3c-0.2,0.2-0.3,0.9-0.3,1.9l0,3.8l3.7-4.4l0.6-0.7
		c0.1-0.2,0.2-0.3,0.2-0.4c0-0.2-0.1-0.3-0.3-0.4c-0.2-0.1-0.5-0.1-1-0.1h-0.2v-2.4h8.9v2.4h-0.2c-0.9,0-1.7,0.1-2.3,0.4
		c-0.6,0.3-1.3,0.8-2.1,1.7l-3.2,3.5l4.8,6.6c1.2,1.6,2.5,2.4,4,2.4h0.3v2.4h-10v-2.4h0.3c0.3,0,0.6,0,0.8-0.1
		c0.2-0.1,0.3-0.2,0.3-0.4c0-0.1,0-0.2-0.1-0.4c-0.1-0.2-0.2-0.4-0.4-0.7l-3.9-5.4v4.7c0,1,0.1,1.6,0.3,1.9c0.2,0.2,0.6,0.4,1.2,0.4
		h0.2h0.2v2.4H393.1z"/>
	<path class="st1" d="M422.3,378.7v-2.4h0.1h0.1c1,0,1.6-0.1,1.9-0.4s0.4-0.9,0.4-1.9v-10.1c0-1-0.1-1.6-0.4-1.9
		c-0.2-0.3-0.8-0.4-1.6-0.4h-0.5v-2.4h9.1v2.4h-0.2c-0.8,0-1.3,0.1-1.5,0.3c-0.2,0.2-0.3,0.9-0.3,1.9l0,3.8l3.7-4.4l0.6-0.7
		c0.1-0.2,0.2-0.3,0.2-0.4c0-0.2-0.1-0.3-0.3-0.4c-0.2-0.1-0.5-0.1-1-0.1h-0.2v-2.4h8.9v2.4H441c-0.9,0-1.7,0.1-2.3,0.4
		c-0.6,0.3-1.3,0.8-2.1,1.7l-3.2,3.5l4.8,6.6c1.2,1.6,2.5,2.4,4,2.4h0.3v2.4h-10v-2.4h0.3c0.3,0,0.6,0,0.8-0.1s0.3-0.2,0.3-0.4
		c0-0.1,0-0.2-0.1-0.4c-0.1-0.2-0.2-0.4-0.4-0.7l-3.9-5.4v4.7c0,1,0.1,1.6,0.3,1.9c0.2,0.2,0.6,0.4,1.2,0.4h0.2h0.2v2.4H422.3z"/>
	<path class="st1" d="M443.3,361.7v-2.4h9.3v2.4h-0.2c-0.8,0-1.4,0.1-1.6,0.4c-0.2,0.2-0.3,0.9-0.3,1.9v8.2c0,1.7,0.2,2.8,0.7,3.4
		c0.4,0.6,1.2,0.9,2.3,0.9c0.5,0,1-0.1,1.4-0.3c0.4-0.2,0.8-0.4,1-0.7c0.2-0.2,0.3-0.5,0.4-0.9c0-0.2,0.1-0.4,0.1-0.7s0-0.6,0-1V372
		v-8c0-1-0.1-1.6-0.4-1.9c-0.2-0.3-0.7-0.4-1.4-0.4h-0.3H454v-2.4h7.8v2.4h-0.2c-1,0-1.6,0.1-1.9,0.4c-0.3,0.2-0.4,0.9-0.4,1.9v7.9
		c0,1.6-0.1,2.8-0.3,3.5c-0.2,0.7-0.6,1.4-1.1,2c-0.5,0.6-1.2,1-2.1,1.3c-0.9,0.3-1.9,0.5-3.1,0.5c-2.4,0-4.2-0.5-5.3-1.6
		c-1.1-1-1.7-2.7-1.7-5.1v-8.5c0-1-0.1-1.6-0.4-1.9c-0.2-0.3-0.8-0.4-1.6-0.4H443.3z"/>
	<path class="st1" d="M469.9,368h0.6c1.6,0,2.7-0.2,3.3-0.7c0.7-0.5,1-1.2,1-2.3c0-1.1-0.4-1.9-1.1-2.4c-0.4-0.3-0.8-0.5-1.3-0.6
		c-0.5-0.1-1.1-0.2-1.9-0.2h-0.7V368z M462.8,378.7v-2.4h0.1h0.1c1,0,1.6-0.1,1.9-0.4s0.4-0.9,0.4-1.9v-10.1c0-1-0.1-1.6-0.4-1.9
		c-0.2-0.3-0.8-0.4-1.6-0.4h-0.5v-2.4h7.9c0.7,0,1.3,0,1.8,0c0.5,0,1,0.1,1.4,0.2c0.8,0.1,1.6,0.3,2.2,0.6c1.1,0.5,2,1.2,2.7,2.1
		c0.7,0.9,1,1.9,1,3c0,1.2-0.4,2.2-1.1,3.1c-0.7,0.9-1.7,1.5-3,1.8l2.3,4.5c0.3,0.6,0.7,1.1,1.1,1.3c0.2,0.1,0.5,0.2,0.9,0.3
		c0.4,0.1,0.9,0.1,1.6,0.1v2.4h-6.8l-3.9-8.1h-1.1v3.5c0,1,0.1,1.6,0.4,1.9c0.2,0.2,0.7,0.4,1.5,0.4h0.3h0.4v2.4H462.8z"/>
	<path class="st1" d="M482.2,361.7v-2.4h9.3v2.4h-0.2c-0.8,0-1.4,0.1-1.6,0.4c-0.2,0.2-0.3,0.9-0.3,1.9v8.2c0,1.7,0.2,2.8,0.7,3.4
		c0.4,0.6,1.2,0.9,2.3,0.9c0.5,0,1-0.1,1.4-0.3c0.4-0.2,0.8-0.4,1-0.7c0.2-0.2,0.3-0.5,0.4-0.9c0-0.2,0.1-0.4,0.1-0.7s0-0.6,0-1V372
		v-8c0-1-0.1-1.6-0.4-1.9c-0.2-0.3-0.7-0.4-1.4-0.4h-0.3h-0.3v-2.4h7.8v2.4h-0.2c-1,0-1.6,0.1-1.9,0.4c-0.3,0.2-0.4,0.9-0.4,1.9v7.9
		c0,1.6-0.1,2.8-0.3,3.5c-0.2,0.7-0.6,1.4-1.1,2c-0.5,0.6-1.2,1-2.1,1.3c-0.9,0.3-1.9,0.5-3.1,0.5c-2.4,0-4.2-0.5-5.3-1.6
		c-1.1-1-1.7-2.7-1.7-5.1v-8.5c0-1-0.1-1.6-0.4-1.9c-0.2-0.3-0.8-0.4-1.6-0.4H482.2z"/>
	<path class="st1" d="M507,374c0,1,0.1,1.6,0.4,1.9s0.7,0.4,1.5,0.4h0.3h0.4v2.4h-8.1v-2.4l0.1,0h0.1c1.1,0,1.8-0.1,2-0.4
		c0.3-0.2,0.4-0.9,0.4-1.9v-10.1c0-1-0.1-1.6-0.4-1.9c-0.3-0.2-0.8-0.4-1.7-0.4h-0.5v-2.4h8.7l3.2,11l3.2-11h8.5v2.4h-0.2
		c-1,0-1.6,0.1-1.8,0.4c-0.2,0.3-0.4,0.9-0.4,1.9V374c0,1,0.1,1.6,0.4,1.9c0.2,0.2,0.8,0.4,1.5,0.4h0.3h0.2v2.4h-9.3v-2.4l0.1,0h0.2
		c1,0,1.6-0.1,1.8-0.4c0.2-0.2,0.4-0.9,0.4-1.9v-10.7l-4.7,15.4h-1.8L507,363V374z"/>
	<path class="st1" d="M526.2,361.7v-2.4h9.3v2.4h-0.2c-0.8,0-1.4,0.1-1.6,0.4c-0.2,0.2-0.3,0.9-0.3,1.9v8.2c0,1.7,0.2,2.8,0.7,3.4
		c0.4,0.6,1.2,0.9,2.3,0.9c0.5,0,1-0.1,1.4-0.3c0.4-0.2,0.8-0.4,1-0.7c0.2-0.2,0.3-0.5,0.4-0.9c0-0.2,0.1-0.4,0.1-0.7
		c0-0.3,0-0.6,0-1V372v-8c0-1-0.1-1.6-0.4-1.9c-0.2-0.3-0.7-0.4-1.4-0.4h-0.3h-0.3v-2.4h7.8v2.4h-0.2c-1,0-1.6,0.1-1.9,0.4
		c-0.3,0.2-0.4,0.9-0.4,1.9v7.9c0,1.6-0.1,2.8-0.3,3.5c-0.2,0.7-0.6,1.4-1.1,2c-0.5,0.6-1.2,1-2.1,1.3c-0.9,0.3-1.9,0.5-3.1,0.5
		c-2.4,0-4.2-0.5-5.3-1.6c-1.1-1-1.7-2.7-1.7-5.1v-8.5c0-1-0.1-1.6-0.4-1.9c-0.2-0.3-0.8-0.4-1.6-0.4H526.2z"/>
</g>
</svg>
